<svg width="94" height="26" viewBox="0 0 94 26" fill="none" xmlns="http://www.w3.org/2000/svg">
<g clip-path="url(#clip0_220_294)">
<mask id="mask0_220_294" style="mask-type:luminance" maskUnits="userSpaceOnUse" x="0" y="0" width="94" height="26">
<path d="M93.6 0H0V26H93.6V0Z" fill="white"/>
</mask>
<g mask="url(#mask0_220_294)">
<path d="M47.3474 18.1004C47.3182 18.0701 47.2805 18.0484 47.2388 18.0484C47.197 18.0397 47.1552 18.0614 47.1259 18.0874C45.6258 19.4871 43.7037 20.2541 41.7147 20.2541C37.3773 20.2541 33.8506 16.7007 33.8506 12.3327C33.8506 7.96472 37.3773 4.46339 41.7147 4.46339C43.7079 4.46339 45.6802 5.26072 47.1218 6.65605C47.1552 6.68639 47.1928 6.69939 47.2429 6.69939C47.2847 6.69939 47.3265 6.67339 47.3558 6.63872L47.9825 5.80672C48.0327 5.73739 48.0243 5.64206 47.9617 5.58572C46.2317 3.98239 44.0045 3.09839 41.6896 3.09839C36.6127 3.09839 32.4842 7.25406 32.4842 12.3587C32.4842 17.4634 36.6127 21.6451 41.6896 21.6451C43.9878 21.6451 46.286 20.7091 47.9867 19.0797C48.0494 19.0191 48.0536 18.9194 47.9951 18.8501L47.3432 18.0961L47.3474 18.1004Z" fill="#0F0D1F"/>
<path d="M52.3951 2.00635H51.3463C51.2585 2.00635 51.1875 2.08007 51.1875 2.17101V21.4587C51.1875 21.5496 51.2585 21.6233 51.3463 21.6233H52.3951C52.4829 21.6233 52.5539 21.5496 52.5539 21.4587V2.17101C52.5539 2.08007 52.4829 2.00635 52.3951 2.00635Z" fill="#0F0D1F"/>
<path d="M62.0225 7.72632C58.1991 7.72632 55.4246 10.647 55.4246 14.6727C55.4246 18.6983 58.1991 21.645 62.0225 21.645C65.8459 21.645 68.6205 18.7113 68.6205 14.6727C68.6205 10.634 65.8459 7.72632 62.0225 7.72632ZM62.0225 20.3103C58.9262 20.3103 56.7659 18.005 56.7659 14.703C56.7659 11.401 58.9262 9.09565 62.0225 9.09565C65.1189 9.09565 67.2792 11.401 67.2792 14.703C67.2792 18.005 65.1189 20.3103 62.0225 20.3103Z" fill="#0F0D1F"/>
<path d="M75.043 13.8233C73.2671 13.2687 71.7336 12.792 71.7336 11.2147C71.7336 9.84965 72.8952 9.03932 74.8341 9.03932C76.0041 9.03932 77.149 9.37299 78.0599 9.97532C78.0975 10.0013 78.1435 10.0057 78.1853 9.99699C78.2271 9.98399 78.2647 9.95798 78.2856 9.91465L78.7368 9.03065C78.7744 8.95265 78.7494 8.86165 78.6783 8.81399C77.5334 8.09032 76.2506 7.72632 74.8633 7.72632C72.7155 7.72632 70.4215 8.66232 70.4215 11.2927C70.4215 13.923 72.6695 14.573 74.6502 15.2143C76.4177 15.7863 78.0892 16.3237 78.0432 18.018C77.9471 20.1673 75.4734 20.332 74.7129 20.332C73.1083 20.332 71.5539 19.721 70.4591 18.6593C70.4257 18.6247 70.3797 18.6073 70.3296 18.616C70.2836 18.6247 70.2418 18.6507 70.2167 18.694L69.7404 19.526C69.7028 19.591 69.7153 19.6733 69.7654 19.7253C70.9898 20.943 72.7782 21.6407 74.6627 21.6407C76.8272 21.6407 79.3553 20.644 79.3553 17.836C79.3553 15.028 77.0654 14.4473 75.043 13.8147V13.8233Z" fill="#0F0D1F"/>
<path d="M91.5818 9.49865C90.4828 8.33732 88.966 7.72632 87.1943 7.72632C83.4127 7.72632 80.6715 10.66 80.6715 14.6987C80.6715 18.7373 83.4168 21.645 87.1943 21.645C89.2668 21.645 91.1054 20.8607 92.3757 19.435C92.43 19.3743 92.43 19.279 92.3757 19.2183L91.774 18.5163C91.7447 18.4817 91.7029 18.4643 91.657 18.46C91.6194 18.473 91.5692 18.4773 91.54 18.512C90.5079 19.6863 88.9827 20.332 87.2444 20.332C84.311 20.332 82.2301 18.2563 82.0212 15.145H93.2615C93.3451 15.145 93.4162 15.0757 93.4203 14.9847C93.4621 12.74 92.8061 10.79 91.5818 9.49432V9.49865ZM82.0546 13.858C82.3638 10.9677 84.4113 9.03499 87.1984 9.03499C89.9855 9.03499 91.8826 10.92 92.1417 13.858H82.0546Z" fill="#0F0D1F"/>
<path d="M13.3714 20.3709C5.87507 20.3709 0 17.1339 0 13.0042C0 8.87457 5.87507 5.63757 13.3714 5.63757C20.8678 5.63757 26.7429 8.87457 26.7429 13.0042C26.7429 17.1339 20.8678 20.3709 13.3714 20.3709ZM13.3714 7.80424C8.03539 7.80424 2.08929 9.94057 2.08929 13.0042C2.08929 16.0679 8.03539 18.2042 13.3714 18.2042C18.7075 18.2042 24.6536 16.0679 24.6536 13.0042C24.6536 9.94057 18.7075 7.80424 13.3714 7.80424Z" fill="#4EC375"/>
<path d="M17.8968 25.5883C14.5456 25.5883 10.2584 22.152 7.21639 16.6876C5.49064 13.5893 4.44182 10.3176 4.25796 7.47063C4.05739 4.35063 4.91818 2.05397 6.68154 0.996635C8.44489 -0.0606981 10.7974 0.316302 13.3004 2.05397C15.5861 3.6443 17.7924 6.22263 19.5181 9.32097C23.2663 16.055 23.5003 22.9493 20.053 25.012C19.4011 25.402 18.674 25.5883 17.8926 25.5883H17.8968ZM8.87946 2.5783C8.44489 2.5783 8.05629 2.67364 7.73036 2.87297C6.70661 3.48397 6.201 5.10897 6.34307 7.32764C6.50604 9.84963 7.45875 12.792 9.02571 15.6086C11.6916 20.4013 16.451 24.674 19.0083 23.14C21.5656 21.606 20.3789 15.2013 17.7088 10.4086C16.1418 7.59197 14.1612 5.26497 12.1388 3.86097C10.927 3.0203 9.79875 2.58697 8.87529 2.58697L8.87946 2.5783Z" fill="#1463FF"/>
<path d="M8.87529 25.6013C8.07718 25.6013 7.34176 25.4063 6.68572 25.0119C4.92236 23.9546 4.0574 21.6579 4.26215 18.5379C4.44601 15.6909 5.49483 12.4193 7.22058 9.32092C10.9688 2.58692 16.6098 -1.07041 20.0572 0.992256C23.5045 3.05926 23.2705 9.94926 19.5223 16.6833C17.7965 19.7816 15.5903 22.3599 13.3046 23.9503C11.7334 25.0423 10.2208 25.5969 8.87529 25.5969V25.6013ZM17.8091 2.55226C15.1515 2.55226 11.3198 6.28326 9.02572 10.3999C7.45876 13.2166 6.50604 16.1546 6.34308 18.6809C6.20101 20.8996 6.70661 22.5203 7.73036 23.1356C8.75411 23.7466 10.3587 23.3913 12.1429 22.1519C14.1695 20.7436 16.146 18.4166 17.713 15.6043C20.3789 10.8116 21.5698 4.40259 19.0125 2.87292C18.6532 2.65626 18.2478 2.55659 17.8091 2.55659V2.55226Z" fill="#FFBC00"/>
<path d="M13.3714 18.2044C8.03539 18.2044 2.08929 16.0681 2.08929 13.0044H0C0 17.1341 5.87507 20.3711 13.3714 20.3711V18.2044Z" fill="#4EC375"/>
<path d="M13.852 5.26924C13.292 4.73191 12.7196 4.25524 12.1429 3.85224C11.5746 3.45791 11.0231 3.15024 10.5049 2.93791L11.1986 0.892578C11.8839 1.16558 12.59 1.55124 13.3088 2.05391C14.0651 2.58258 14.8172 3.21524 15.5443 3.94324L13.8561 5.26924H13.852Z" fill="#1463FF"/>
<path d="M15.5276 22.7458C14.625 22.2431 13.6848 21.4934 12.7739 20.5878L11.1735 22.0308C12.1095 22.9711 13.0706 23.7424 14.0233 24.3231L15.5317 22.7458H15.5276Z" fill="#1463FF"/>
<path d="M22.9989 10.3524C20.8594 8.77509 16.9775 7.80009 13.3714 7.80009V5.63342C17.5709 5.63342 21.2606 6.64742 23.6967 8.26809L22.9989 10.3524Z" fill="#4EC375"/>
</g>
</g>
<defs>
<clipPath id="clip0_220_294">
<rect width="93.6" height="26" fill="white"/>
</clipPath>
</defs>
</svg>
