<svg xmlns="http://www.w3.org/2000/svg" width="122" height="40" viewBox="0 0 122 40" fill="none">
<path d="M10.0661 28.1283C10.0661 29.6355 9.13838 31.0412 7.3834 31.0412C5.62842 31.0412 4.83366 29.6355 4.83366 28.1612L4.86621 18.4174C4.86621 16.9774 5.69352 15.5374 7.41595 15.5374C9.13838 15.5374 9.99824 17.0446 9.99824 18.6505V19.4871H14.8658V18.7177C14.8658 14.4992 12.0842 10.8828 7.41595 10.8828C2.74775 10.8828 0 14.4334 0 18.4187V28.1626C0 32.1809 2.68265 35.6629 7.38476 35.6629C12.0869 35.6629 14.9011 32.1809 14.9011 28.1283V26.9901H10.0661V28.1283Z" fill="#231F20"/>
<path d="M44.0054 11.39H37.3164V35.1964H42.1514V26.4235H44.0054C48.774 26.4235 51.953 23.6107 51.953 18.8889C51.953 14.1672 48.774 11.3887 44.0054 11.3887V11.39ZM44.0054 21.8032H42.1514V15.9774H44.0054C45.9923 15.9774 47.019 17.0485 47.019 18.8903C47.019 20.7321 45.9923 21.8032 44.0054 21.8032Z" fill="#231F20"/>
<path d="M122 15.976V11.3887H109.052V35.195H122V30.6077H113.887V25.602H121.502V20.9817H113.887V15.976H122Z" fill="#231F20"/>
<path d="M91.2693 35.195H104.217V30.6077H96.1043V25.602H103.72V20.9817H96.1043V15.976H104.217V11.3887H91.2693V35.195Z" fill="#231F20"/>
<path d="M73.4893 35.195H78.3243V25.602H85.9396V20.9817H78.3243V15.976H86.436V11.3887H73.4893V35.195Z" fill="#231F20"/>
<path d="M55.7061 35.195H60.5397V25.602H68.1564V20.9817H60.5397V15.976H68.6528V11.3887H55.7061V35.195Z" fill="#231F20"/>
<path d="M23.9174 11.3896C25.9708 10.5955 28.1774 9.24607 27.9414 6.92152C27.7122 4.6724 25.884 2.15312 27.4369 0C25.3835 0.794048 23.1769 2.14352 23.4129 4.46806C23.6421 6.71718 25.4703 9.23647 23.9174 11.3896Z" fill="#231F20"/>
<path d="M28.8492 18.6765L27.8741 30.5749H23.4798L22.2307 15.3398C21.4983 15.8185 20.6263 16.0996 19.6891 16.0996C19.0286 16.0996 18.4007 15.9597 17.8311 15.7115L19.2863 33.4535C19.3677 34.4381 20.1801 35.1952 21.1566 35.1952H30.1959C31.1724 35.1952 31.9862 34.4381 32.0662 33.4535L33.2475 19.0481C32.6779 19.2964 32.0499 19.4363 31.3894 19.4363C30.4523 19.4363 29.5802 19.1551 28.8478 18.6765H28.8492Z" fill="#231F20"/>
</svg>