<svg xmlns="http://www.w3.org/2000/svg" viewBox="0 0 2126 548" width="2126" height="548"><title>Eleven-logo-svg</title><style>		.s0 { fill: #ea178c } 	</style><g id="Layer 1"><g id="&lt;Group&gt;"><path id="&lt;Compound Path&gt;" fill-rule="evenodd" class="s0" d="m340.6 207.4c15.1 25.6 23 56 23.5 90.3 0 9.3-0.7 19-2.1 28.7l-0.4 2.4h-265.6v1.3c1.8 29.8 11.3 53.8 28.2 71.1 16.8 17.3 39.5 26 67.6 26 22.3 0 41.2-5.2 56.2-15.7 15-10.3 25.1-25.2 29.9-44.2l0.6-2.1h79.9l-0.6 3.3c-6.5 36.4-24.3 66.6-53 89.9-28.6 23.3-64.8 35.1-107.5 35.1-37.1 0-69.9-7.7-97.5-22.8-27.7-15.1-49.4-36.7-64.5-64.1-15.1-27.4-22.7-59.6-22.7-95.8 0-36.5 7.4-69.1 22-96.7 14.7-27.7 35.4-49.4 61.7-64.5 26.3-15.1 56.8-22.8 90.6-22.8 34.3 0 65 7.1 91.3 21 26.3 14 47.3 34 62.4 59.6zm-87.6 6c-16.6-14-37.9-21.1-63.3-21.1-23.6 0-44.2 7.4-61.3 21.8-16.3 13.7-26.1 32.1-29.3 54.7h183.2c-3.6-23.5-13.4-42.1-29.3-55.4z"></path><path id="&lt;Path&gt;" class="s0" d="m514.5 0.3h-80v488h64.9v0.1h70.7v-72.4h-55.6z"></path><path id="&lt;Compound Path&gt;" fill-rule="evenodd" class="s0" d="m922.7 207.4c15.1 25.6 23 56 23.5 90.3 0 9.3-0.7 19-2.1 28.7l-0.3 2.4h-265.6v1.3c1.7 29.8 11.2 53.8 28.1 71.1 16.8 17.3 39.6 26 67.6 26 22.3 0 41.2-5.2 56.3-15.7 15-10.3 25-25.2 29.9-44.2l0.5-2.1h79.9l-0.5 3.3c-6.6 36.4-24.4 66.6-53 89.9-28.7 23.3-64.9 35.1-107.6 35.1-37 0-69.8-7.7-97.5-22.8-27.7-15.1-49.4-36.7-64.5-64.1-15-27.4-22.7-59.6-22.7-95.8 0-36.5 7.4-69.1 22-96.7 14.7-27.7 35.5-49.4 61.7-64.5 26.3-15.1 56.8-22.8 90.7-22.8 34.3 0 65 7.1 91.2 21 26.3 14 47.3 34 62.4 59.6zm-58.3 61.4c-3.5-23.5-13.4-42.1-29.2-55.4-16.7-14-38-21.1-63.4-21.1-23.5 0-44.1 7.4-61.2 21.8-16.3 13.7-26.2 32.1-29.3 54.7z"></path><path id="&lt;Path&gt;" class="s0" d="m1144.9 398.2l-94.5-265.4-0.6-1.9h-85.9l131.6 356.6 0.7 1.8h94.8l132.3-358.4h-84.5z"></path><path id="&lt;Compound Path&gt;" fill-rule="evenodd" class="s0" d="m1664 207.4c15.1 25.6 23 56 23.4 90.3 0 9.3-0.7 19-2.1 28.7l-0.3 2.4h-265.6v1.3c1.8 29.8 11.2 53.8 28.1 71.1 16.9 17.3 39.6 26 67.6 26 22.3 0 41.2-5.2 56.3-15.7 15-10.3 25-25.2 29.9-44.2l0.5-2.1h80l-0.6 3.3c-6.6 36.4-24.4 66.6-53 89.9-28.6 23.3-64.8 35.1-107.6 35.1-37 0-69.8-7.7-97.4-22.8-27.7-15.1-49.4-36.7-64.5-64.1-15.1-27.4-22.8-59.6-22.8-95.8 0-36.5 7.4-69.1 22.1-96.7 14.6-27.7 35.4-49.4 61.7-64.5 26.2-15.1 56.7-22.8 90.6-22.8 34.3 0 65 7.1 91.2 21 26.3 14 47.3 34 62.5 59.6zm-58.4 61.4c-3.5-23.5-13.3-42.1-29.2-55.4-16.7-14-38-21.1-63.3-21.1-23.6 0-44.2 7.4-61.3 21.8-16.3 13.7-26.1 32.1-29.3 54.7z"></path><path id="&lt;Path&gt;" class="s0" d="m2038.4 166.2c-26.9-26.1-62-39.4-104.3-39.4-47.1 0-84.5 15.7-111.3 46.7l-7.7-42.6h-69.9v358.4h80v-180.5c0-35 8.3-62.8 24.6-82.7 16.1-19.6 38.7-29.6 67-29.6 26.6 0 47 8.4 60.6 25.1 13.7 16.9 20.7 42.1 20.7 74.8v192.9h80.7v-197.1c0-57.4-13.6-99.8-40.4-126z"></path></g></g></svg>